<mxfile host="Electron" agent="Mozilla/5.0 (Macintosh; Intel Mac OS X 10_15_7) AppleWebKit/537.36 (KHTML, like Gecko) draw.io/25.0.2 Chrome/128.0.6613.186 Electron/32.2.5 Safari/537.36" version="25.0.2">
  <diagram id="C5RBs43oDa-KdzZeNtuy" name="Page-1">
    <mxGraphModel dx="2171" dy="1140" grid="0" gridSize="10" guides="1" tooltips="1" connect="1" arrows="1" fold="1" page="1" pageScale="1" pageWidth="827" pageHeight="1169" math="0" shadow="0">
      <root>
        <mxCell id="WIyWlLk6GJQsqaUBKTNV-0" />
        <mxCell id="WIyWlLk6GJQsqaUBKTNV-1" parent="WIyWlLk6GJQsqaUBKTNV-0" />
        <mxCell id="FSEgTZkNE_-apT6jtSsS-30" value="" style="verticalLabelPosition=bottom;verticalAlign=top;html=1;shape=mxgraph.flowchart.on-page_reference;rounded=0;labelBackgroundColor=none;fillColor=#000000;" parent="WIyWlLk6GJQsqaUBKTNV-1" vertex="1">
          <mxGeometry x="155" y="95" width="20" height="20" as="geometry" />
        </mxCell>
        <mxCell id="FSEgTZkNE_-apT6jtSsS-31" value="Display Public timeline&amp;nbsp;" style="rounded=1;whiteSpace=wrap;html=1;arcSize=40;html=1;glass=0;shadow=0;labelBackgroundColor=none;fillColor=#f5f5f5;fontColor=#333333;strokeColor=#666666;" parent="WIyWlLk6GJQsqaUBKTNV-1" vertex="1">
          <mxGeometry x="105" y="165" width="120" height="40" as="geometry" />
        </mxCell>
        <mxCell id="FSEgTZkNE_-apT6jtSsS-32" value="Login" style="rounded=1;whiteSpace=wrap;html=1;arcSize=40;html=1;glass=0;shadow=0;labelBackgroundColor=none;fillColor=#f5f5f5;fontColor=#333333;strokeColor=#666666;" parent="WIyWlLk6GJQsqaUBKTNV-1" vertex="1">
          <mxGeometry x="105" y="245" width="120" height="40" as="geometry" />
        </mxCell>
        <mxCell id="FSEgTZkNE_-apT6jtSsS-33" value="Succesful?" style="rhombus;whiteSpace=wrap;html=1;rounded=0;labelBackgroundColor=none;fillColor=#f5f5f5;fontColor=#333333;strokeColor=#666666;" parent="WIyWlLk6GJQsqaUBKTNV-1" vertex="1">
          <mxGeometry x="115" y="325" width="100" height="40" as="geometry" />
        </mxCell>
        <mxCell id="FSEgTZkNE_-apT6jtSsS-34" value="Display Public timeline&amp;nbsp;" style="rounded=1;whiteSpace=wrap;html=1;arcSize=40;html=1;glass=0;shadow=0;labelBackgroundColor=none;fillColor=#f5f5f5;fontColor=#333333;strokeColor=#666666;" parent="WIyWlLk6GJQsqaUBKTNV-1" vertex="1">
          <mxGeometry x="105" y="405" width="120" height="40" as="geometry" />
        </mxCell>
        <mxCell id="FSEgTZkNE_-apT6jtSsS-35" value="About Me" style="rounded=1;whiteSpace=wrap;html=1;arcSize=40;html=1;glass=0;shadow=0;labelBackgroundColor=none;fillColor=#f5f5f5;fontColor=#333333;strokeColor=#666666;" parent="WIyWlLk6GJQsqaUBKTNV-1" vertex="1">
          <mxGeometry x="105" y="485" width="120" height="40" as="geometry" />
        </mxCell>
        <mxCell id="FSEgTZkNE_-apT6jtSsS-36" value="Forget Me" style="rounded=1;whiteSpace=wrap;html=1;arcSize=40;html=1;glass=0;shadow=0;labelBackgroundColor=none;fillColor=#f5f5f5;fontColor=#333333;strokeColor=#666666;" parent="WIyWlLk6GJQsqaUBKTNV-1" vertex="1">
          <mxGeometry x="105" y="565.5" width="120" height="40" as="geometry" />
        </mxCell>
        <mxCell id="FSEgTZkNE_-apT6jtSsS-37" value="" style="endArrow=classic;html=1;rounded=0;entryX=0.5;entryY=0;entryDx=0;entryDy=0;labelBackgroundColor=none;fontColor=default;" parent="WIyWlLk6GJQsqaUBKTNV-1" target="FSEgTZkNE_-apT6jtSsS-31" edge="1">
          <mxGeometry width="50" height="50" relative="1" as="geometry">
            <mxPoint x="165" y="115" as="sourcePoint" />
            <mxPoint x="195" y="175" as="targetPoint" />
          </mxGeometry>
        </mxCell>
        <mxCell id="FSEgTZkNE_-apT6jtSsS-38" value="" style="endArrow=classic;html=1;rounded=0;labelBackgroundColor=none;fontColor=default;" parent="WIyWlLk6GJQsqaUBKTNV-1" edge="1">
          <mxGeometry width="50" height="50" relative="1" as="geometry">
            <mxPoint x="164.76" y="205" as="sourcePoint" />
            <mxPoint x="165" y="245" as="targetPoint" />
          </mxGeometry>
        </mxCell>
        <mxCell id="FSEgTZkNE_-apT6jtSsS-39" value="" style="endArrow=classic;html=1;rounded=0;labelBackgroundColor=none;fontColor=default;" parent="WIyWlLk6GJQsqaUBKTNV-1" edge="1">
          <mxGeometry width="50" height="50" relative="1" as="geometry">
            <mxPoint x="164.76" y="285" as="sourcePoint" />
            <mxPoint x="165" y="325" as="targetPoint" />
          </mxGeometry>
        </mxCell>
        <mxCell id="FSEgTZkNE_-apT6jtSsS-40" value="" style="endArrow=classic;html=1;rounded=0;labelBackgroundColor=none;fontColor=default;" parent="WIyWlLk6GJQsqaUBKTNV-1" edge="1">
          <mxGeometry width="50" height="50" relative="1" as="geometry">
            <mxPoint x="164.76" y="365" as="sourcePoint" />
            <mxPoint x="165" y="405" as="targetPoint" />
          </mxGeometry>
        </mxCell>
        <mxCell id="FSEgTZkNE_-apT6jtSsS-41" value="" style="endArrow=classic;html=1;rounded=0;labelBackgroundColor=none;fontColor=default;" parent="WIyWlLk6GJQsqaUBKTNV-1" edge="1">
          <mxGeometry width="50" height="50" relative="1" as="geometry">
            <mxPoint x="164.76" y="445" as="sourcePoint" />
            <mxPoint x="165" y="485" as="targetPoint" />
          </mxGeometry>
        </mxCell>
        <mxCell id="FSEgTZkNE_-apT6jtSsS-42" value="" style="endArrow=classic;html=1;rounded=0;labelBackgroundColor=none;fontColor=default;" parent="WIyWlLk6GJQsqaUBKTNV-1" edge="1">
          <mxGeometry width="50" height="50" relative="1" as="geometry">
            <mxPoint x="164.76" y="525" as="sourcePoint" />
            <mxPoint x="165" y="565" as="targetPoint" />
          </mxGeometry>
        </mxCell>
        <mxCell id="FSEgTZkNE_-apT6jtSsS-43" value="Yes" style="text;html=1;align=center;verticalAlign=middle;whiteSpace=wrap;rounded=0;labelBackgroundColor=none;" parent="WIyWlLk6GJQsqaUBKTNV-1" vertex="1">
          <mxGeometry x="148" y="357" width="60" height="30" as="geometry" />
        </mxCell>
        <mxCell id="FSEgTZkNE_-apT6jtSsS-44" value="" style="endArrow=classic;html=1;rounded=0;labelBackgroundColor=none;fontColor=default;" parent="WIyWlLk6GJQsqaUBKTNV-1" edge="1">
          <mxGeometry width="50" height="50" relative="1" as="geometry">
            <mxPoint x="215" y="344.76" as="sourcePoint" />
            <mxPoint x="225" y="265" as="targetPoint" />
            <Array as="points">
              <mxPoint x="262" y="345" />
              <mxPoint x="262" y="265" />
            </Array>
          </mxGeometry>
        </mxCell>
        <mxCell id="FSEgTZkNE_-apT6jtSsS-45" value="No" style="text;html=1;align=center;verticalAlign=middle;whiteSpace=wrap;rounded=0;labelBackgroundColor=none;" parent="WIyWlLk6GJQsqaUBKTNV-1" vertex="1">
          <mxGeometry x="195" y="320" width="60" height="30" as="geometry" />
        </mxCell>
        <mxCell id="FSEgTZkNE_-apT6jtSsS-46" value="" style="verticalLabelPosition=bottom;verticalAlign=top;html=1;shape=mxgraph.flowchart.on-page_reference;fillColor=none;rounded=0;labelBackgroundColor=none;" parent="WIyWlLk6GJQsqaUBKTNV-1" vertex="1">
          <mxGeometry x="425" y="585.5" width="20" height="20" as="geometry" />
        </mxCell>
        <mxCell id="FSEgTZkNE_-apT6jtSsS-47" value="" style="verticalLabelPosition=bottom;verticalAlign=top;html=1;shape=mxgraph.flowchart.on-page_reference;rounded=0;labelBackgroundColor=none;strokeColor=#000000;fillColor=#000000;" parent="WIyWlLk6GJQsqaUBKTNV-1" vertex="1">
          <mxGeometry x="430" y="590.5" width="10" height="10" as="geometry" />
        </mxCell>
        <mxCell id="FSEgTZkNE_-apT6jtSsS-48" value="" style="endArrow=classic;html=1;rounded=0;labelBackgroundColor=none;fontColor=default;" parent="WIyWlLk6GJQsqaUBKTNV-1" edge="1">
          <mxGeometry width="50" height="50" relative="1" as="geometry">
            <mxPoint x="434.66999999999996" y="385.5" as="sourcePoint" />
            <mxPoint x="434.90999999999997" y="425.5" as="targetPoint" />
          </mxGeometry>
        </mxCell>
        <mxCell id="FSEgTZkNE_-apT6jtSsS-49" value="Delete Personal Data" style="rounded=1;whiteSpace=wrap;html=1;arcSize=40;html=1;glass=0;shadow=0;labelBackgroundColor=none;fillColor=#f5f5f5;fontColor=#333333;strokeColor=#666666;" parent="WIyWlLk6GJQsqaUBKTNV-1" vertex="1">
          <mxGeometry x="375" y="185.5" width="120" height="40" as="geometry" />
        </mxCell>
        <mxCell id="FSEgTZkNE_-apT6jtSsS-50" value="Type password to delete account" style="rounded=1;whiteSpace=wrap;html=1;arcSize=40;html=1;glass=0;shadow=0;labelBackgroundColor=none;fillColor=#f5f5f5;fontColor=#333333;strokeColor=#666666;" parent="WIyWlLk6GJQsqaUBKTNV-1" vertex="1">
          <mxGeometry x="375" y="265.5" width="120" height="40" as="geometry" />
        </mxCell>
        <mxCell id="FSEgTZkNE_-apT6jtSsS-51" value="Valid password?" style="rhombus;whiteSpace=wrap;html=1;rounded=0;labelBackgroundColor=none;fillColor=#f5f5f5;fontColor=#333333;strokeColor=#666666;" parent="WIyWlLk6GJQsqaUBKTNV-1" vertex="1">
          <mxGeometry x="365" y="345.5" width="140" height="40" as="geometry" />
        </mxCell>
        <mxCell id="FSEgTZkNE_-apT6jtSsS-52" value="" style="endArrow=classic;html=1;rounded=0;labelBackgroundColor=none;fontColor=default;entryX=0.5;entryY=0;entryDx=0;entryDy=0;" parent="WIyWlLk6GJQsqaUBKTNV-1" edge="1" target="FSEgTZkNE_-apT6jtSsS-49">
          <mxGeometry width="50" height="50" relative="1" as="geometry">
            <mxPoint x="163" y="606" as="sourcePoint" />
            <mxPoint x="475" y="179" as="targetPoint" />
            <Array as="points">
              <mxPoint x="163" y="630" />
              <mxPoint x="308" y="633" />
              <mxPoint x="308" y="134" />
              <mxPoint x="435" y="134" />
            </Array>
          </mxGeometry>
        </mxCell>
        <mxCell id="FSEgTZkNE_-apT6jtSsS-53" value="" style="endArrow=classic;html=1;rounded=0;labelBackgroundColor=none;fontColor=default;" parent="WIyWlLk6GJQsqaUBKTNV-1" edge="1">
          <mxGeometry width="50" height="50" relative="1" as="geometry">
            <mxPoint x="434.6700000000001" y="225.5" as="sourcePoint" />
            <mxPoint x="434.9100000000001" y="265.5" as="targetPoint" />
          </mxGeometry>
        </mxCell>
        <mxCell id="FSEgTZkNE_-apT6jtSsS-54" value="" style="endArrow=classic;html=1;rounded=0;labelBackgroundColor=none;fontColor=default;" parent="WIyWlLk6GJQsqaUBKTNV-1" edge="1">
          <mxGeometry width="50" height="50" relative="1" as="geometry">
            <mxPoint x="434.6700000000001" y="305.5" as="sourcePoint" />
            <mxPoint x="434.9100000000001" y="345.5" as="targetPoint" />
          </mxGeometry>
        </mxCell>
        <mxCell id="FSEgTZkNE_-apT6jtSsS-57" value="" style="endArrow=classic;html=1;rounded=0;entryX=1;entryY=0.5;entryDx=0;entryDy=0;labelBackgroundColor=none;fontColor=default;" parent="WIyWlLk6GJQsqaUBKTNV-1" target="FSEgTZkNE_-apT6jtSsS-50" edge="1">
          <mxGeometry width="50" height="50" relative="1" as="geometry">
            <mxPoint x="505" y="365.5" as="sourcePoint" />
            <mxPoint x="585" y="255.5" as="targetPoint" />
            <Array as="points">
              <mxPoint x="546" y="366" />
              <mxPoint x="546" y="286" />
            </Array>
          </mxGeometry>
        </mxCell>
        <mxCell id="FSEgTZkNE_-apT6jtSsS-58" value="No" style="text;html=1;align=center;verticalAlign=middle;whiteSpace=wrap;rounded=0;labelBackgroundColor=none;" parent="WIyWlLk6GJQsqaUBKTNV-1" vertex="1">
          <mxGeometry x="485" y="339.5" width="60" height="30" as="geometry" />
        </mxCell>
        <mxCell id="FSEgTZkNE_-apT6jtSsS-60" value="Yes" style="text;html=1;align=center;verticalAlign=middle;whiteSpace=wrap;rounded=0;labelBackgroundColor=none;" parent="WIyWlLk6GJQsqaUBKTNV-1" vertex="1">
          <mxGeometry x="418" y="380.5" width="60" height="30" as="geometry" />
        </mxCell>
        <mxCell id="FSEgTZkNE_-apT6jtSsS-61" value="Delete data and&amp;nbsp;&lt;div&gt;close account&lt;/div&gt;" style="rounded=1;whiteSpace=wrap;html=1;arcSize=40;html=1;glass=0;shadow=0;labelBackgroundColor=none;fillColor=#f5f5f5;fontColor=#333333;strokeColor=#666666;" parent="WIyWlLk6GJQsqaUBKTNV-1" vertex="1">
          <mxGeometry x="375" y="425.5" width="120" height="40" as="geometry" />
        </mxCell>
        <mxCell id="FSEgTZkNE_-apT6jtSsS-62" value="Public timeline (unauthorized)" style="rounded=1;whiteSpace=wrap;html=1;arcSize=40;html=1;glass=0;shadow=0;labelBackgroundColor=none;fillColor=#f5f5f5;fontColor=#333333;strokeColor=#666666;" parent="WIyWlLk6GJQsqaUBKTNV-1" vertex="1">
          <mxGeometry x="375" y="505.5" width="120" height="40" as="geometry" />
        </mxCell>
        <mxCell id="FSEgTZkNE_-apT6jtSsS-63" value="" style="endArrow=classic;html=1;rounded=0;labelBackgroundColor=none;fontColor=default;" parent="WIyWlLk6GJQsqaUBKTNV-1" edge="1">
          <mxGeometry width="50" height="50" relative="1" as="geometry">
            <mxPoint x="434.72" y="465.5" as="sourcePoint" />
            <mxPoint x="434.96000000000004" y="505.5" as="targetPoint" />
          </mxGeometry>
        </mxCell>
        <mxCell id="FSEgTZkNE_-apT6jtSsS-64" value="" style="endArrow=classic;html=1;rounded=0;labelBackgroundColor=none;fontColor=default;" parent="WIyWlLk6GJQsqaUBKTNV-1" edge="1">
          <mxGeometry width="50" height="50" relative="1" as="geometry">
            <mxPoint x="434.6600000000001" y="545.5" as="sourcePoint" />
            <mxPoint x="434.9000000000001" y="585.5" as="targetPoint" />
          </mxGeometry>
        </mxCell>
      </root>
    </mxGraphModel>
  </diagram>
</mxfile>
